<?xml version="1.0" encoding="utf-8"?>
<!-- Generator: Adobe Illustrator 27.2.0, SVG Export Plug-In . SVG Version: 6.00 Build 0)  -->
<svg version="1.1" id="Layer_1" xmlns="http://www.w3.org/2000/svg" xmlns:xlink="http://www.w3.org/1999/xlink" x="0px" y="0px"
	 viewBox="0 0 512 512" style="enable-background:new 0 0 512 512;" xml:space="preserve">
<style type="text/css">
	.st0{fill:#FF8C00;}
</style>
<path class="st0" d="M56.3,173.3c2.1-64.8,30.1-112.4,90.6-135c60.7-22.7,112.2-3.7,154.9,44.5c40.6-13.1,78.8-8.1,112.2,20.1
	c23.6,19.9,36.9,45.8,40.6,77.9c-65.3-24.3-129.7-48.2-194.7-72.4c-33.2,19.4-66.7,39-100.7,58.9c0,74.5,0,148.8,0,222.9
	c-1.5,0.6-2.3,1.2-3.1,1.2c-19.6-0.4-39.2,0.2-58.7-1.5c-21.1-1.9-39.8-11.2-56-25c-23.3-20-37.3-45.5-40.6-75.9
	c-4.8-44.6,10.4-81.5,46.4-109.1C50.2,177.5,53.3,175.4,56.3,173.3z"/>
<path class="st0" d="M512,348v78.1c-6.9,1.7-13.5,3.5-20.1,5.1c-73.7,17.1-147.4,34.2-221.1,51.4c-5.9,1.4-10.9,1-16.4-2.3
	c-21.7-13.1-43.7-25.7-65.6-38.4c-2-1.2-3.9-2.5-6.2-4V330.5c1.9-0.9,3.9-2,5.9-2.9c22.2-8.9,44.3-17.8,66.5-26.8
	c4.7-1.9,9.1-2.4,14.2-1.3c77.3,15.4,154.6,30.7,231.9,46C504.6,346.2,507.9,347.1,512,348z M445,362.1c10.2,1.6,18.8,2.9,28.3,4.4
	v50.2c6.1-1,11.1-1.8,16.3-2.7v-54.8c-17.4-2.7-34.4-5.4-51.3-8c-17.1-2.7-34.1-5.3-51.2-7.9c-17.1-2.7-34-5.8-51.1-8.1
	c-16.9-2.3-33.6-6.2-50.6-7.1c-2,12.5-1.4,121.6,0.8,128.4c5.9-0.9,12-1.9,18.9-3V344.2c10.8,1.2,20.7,2.3,31.1,3.4
	c0,9.1,0,17.1,0,25.1c0,8.1,0,16.1,0,24.2c0,8.1-0.1,16.1,0,24.2c0.1,7.9-0.6,15.9,0.6,24.5c6.1-1.3,11-2.3,16.7-3.5v-92.1
	c10,1.4,19,2.7,28.7,4.1c0.2,27.2-0.1,53.9,0.2,81.6c6.3-1.1,11.3-2,17.2-3.1v-76.1c10,1.2,18.6,2.2,28.1,3.4v66.1
	c6.3-1.1,11.5-1.9,17.3-2.9V362.1z M211.1,435.4V356c7.7-2.4,14.6-4.5,22.6-6.9v98.5c5.7,2.7,11,5.2,16.6,7.9
	c1.8-17.2,1.1-117.3-0.9-124.2c-18.4,6.3-36.8,12.6-55.2,18.8v76.8C199.6,429.6,204.6,432.1,211.1,435.4z"/>
<path class="st0" d="M262.1,274.4c-26,11.3-52.1,22.7-78.2,34.2c-2-6.6-2.8-110.6-1-127.9c25.9-15.1,52.2-30.6,79.1-46.3
	c83.2,31,166.6,62,249.8,93c0,34.3,0,67.9,0,102.2C428.1,311,345.2,292.8,262.1,274.4z M399.5,286.8c0-23.3,0-45,0-67.9
	c10,3.2,18.7,5.9,28.1,8.9c0,22,0,43.5,0,65.5c5.9,1.6,11,3,17.4,4.7c0-21.3,0-41.3,0-62.7c10,3.1,18.6,5.8,27.6,8.6
	c0.8,20.7-0.4,40.8,0.7,61.1c5.7,1.5,10.6,2.8,16.2,4.3c0-24.2,0-47.1,0-70.3c-64.7-23.3-129.2-46.4-193.6-69.6
	c-3-1.1-6-1.8-9.1-2.6c-0.2-0.1-0.5,0.2-0.8,0.3c-0.3,0.1-0.5,0.3-1.3,0.7c0,29.3,0,58.8,0,89.2c6.4,1.6,12.7,3.2,20.2,5.1
	c0-26.3,0-51.4,0-77.6c11.2,3.8,21.1,7.2,31.6,10.8c0,25.3,0,49.7,0,74.5c5.6,1.6,10.5,3.1,16.6,4.9c0.6-24.3-0.2-47.7,0.5-72.4
	c10.4,3.3,19.4,6.2,28.7,9.1c0,23.8,0,46.8,0,70.2C387.8,283.3,392.7,284.7,399.5,286.8z M250.1,256.5c1.7-12.8,1.2-82.3-0.8-89.3
	c-18.7,10.4-37.2,20.7-55.7,31.1c0,28-0.1,55.2,0.1,83.9c6.8-2.8,12-5,17.5-7.3c0-25.1,0-49.5,0-74.2c7.2-3.9,13.9-7.5,22.1-12
	c0.1,25.8,0.2,49.9,0.3,75.2C240.1,260.9,245,258.7,250.1,256.5z"/>
</svg>
